<?xml version="1.0" encoding="UTF-8" standalone="no"?>
<!-- Created with Inkscape (http://www.inkscape.org/) -->

<svg
   width="104.90491mm"
   height="62.876266mm"
   viewBox="0 0 104.90491 62.876266"
   version="1.1"
   id="svg1"
   xml:space="preserve"
   xmlns:inkscape="http://www.inkscape.org/namespaces/inkscape"
   xmlns:sodipodi="http://sodipodi.sourceforge.net/DTD/sodipodi-0.dtd"
   xmlns="http://www.w3.org/2000/svg"
   xmlns:svg="http://www.w3.org/2000/svg"><sodipodi:namedview
     id="namedview1"
     pagecolor="#ffffff"
     bordercolor="#999999"
     borderopacity="1"
     inkscape:showpageshadow="0"
     inkscape:pageopacity="0"
     inkscape:pagecheckerboard="0"
     inkscape:deskcolor="#d1d1d1"
     inkscape:document-units="mm" /><defs
     id="defs1" /><g
     inkscape:label="Layer 1"
     inkscape:groupmode="layer"
     id="layer1"
     transform="translate(-78.612978,-532.43413)"><path
       d="m 94.931899,593.38802 c -1.044467,-1.12327 -1.618049,-2.36356 -1.379972,-2.98396 0.248068,-0.64636 -0.346095,-1.76003 -1.518691,-2.84678 -1.669098,-1.54684 -1.778055,-1.86792 -0.81659,-2.40597 0.982803,-0.55 0.996967,-0.8367 0.124165,-2.51005 -1.262381,-2.4199 -1.256147,-4.38447 0.01826,-6.07075 1.790993,-2.36789 1.32655,-3.24868 -1.530926,-2.90334 -4.283435,0.51766 -6.132441,-0.51585 -7.16217,-4.00333 -0.726909,-2.4619 -1.211359,-3.06008 -2.478253,-3.06008 -0.866124,0 -1.574748,-0.31057 -1.574748,-0.69015 0,-0.37959 0.465851,-0.69019 1.035233,-0.69019 0.764811,0 1.03526,-0.80065 1.03526,-3.065 0,-1.68574 -0.313046,-3.25848 -0.69566,-3.49494 -0.829762,-0.51281 -0.384101,-3.52674 0.717832,-4.85446 0.430115,-0.51826 0.580155,-1.57835 0.333418,-2.35576 -0.363546,-1.14542 -0.145293,-1.41545 1.150763,-1.42401 1.951781,-0.013 3.350951,-0.83771 3.611514,-2.12902 0.107209,-0.53138 0.430662,-1.51035 0.718718,-2.17549 0.288056,-0.66511 0.329062,-1.98506 0.09104,-2.9332 -0.261006,-1.0399 -0.137468,-1.72385 0.311376,-1.72385 0.409247,0 0.572982,-0.27681 0.363859,-0.61516 -0.209202,-0.33832 0.253024,-2.04649 1.026808,-3.79591 1.24879,-2.82307 1.655585,-3.18142 3.617747,-3.1868 1.215898,-0.003 6.558774,-0.32227 11.873028,-0.70878 12.82795,-0.93292 45.99204,0.24103 60.04428,2.12569 14.41958,1.93378 16.68725,2.50617 17.17801,4.33584 0.61733,2.30156 0.53524,2.53392 -1.13169,3.20394 -0.91571,0.36808 -1.12168,0.64213 -0.50198,0.66793 1.29624,0.054 2.8346,5.88959 1.82002,6.90416 -0.43008,0.43007 -0.13877,2.34355 0.81884,5.3776 0.81758,2.59047 1.4865,4.93412 1.4865,5.20809 0,0.274 -1.39761,0.49815 -3.10575,0.49815 -1.70815,0 -3.10573,0.16538 -3.10573,0.36725 0,0.2019 0.46585,1.48222 1.03523,2.84495 1.45103,3.47277 1.30548,5.31145 -0.484,6.1139 -1.21272,0.54382 -1.53969,1.30798 -1.62048,3.78704 -0.0556,1.70814 -0.33694,3.64923 -0.62504,4.31351 -0.3203,0.73841 -0.22694,1.20778 0.24024,1.20778 0.4202,0 0.764,0.767 0.764,1.70445 0,0.93741 0.61584,2.80087 1.36855,4.14098 l 1.36854,2.43654 h -9.30544 -9.30541 v 2.65957 2.65955 l -8.10945,0.92403 c -5.08453,0.57935 -17.02535,0.95093 -32.01209,0.99616 l -23.902651,0.0722 z"
       style="fill:#d62828;fill-opacity:1;stroke-width:2.60849"
       id="path1" /></g></svg>
